<svg width="20" height="20" viewBox="0 0 20 20" fill="none" xmlns="http://www.w3.org/2000/svg">
<g clip-path="url(#clip0_103_140)">
<path d="M16.0417 4.16669C16.2075 4.16669 16.3665 4.23254 16.4837 4.34975C16.6009 4.46696 16.6667 4.62593 16.6667 4.79169C16.6667 4.95745 16.6009 5.11642 16.4837 5.23363C16.3665 5.35084 16.2075 5.41669 16.0417 5.41669H9.79175C9.62599 5.41669 9.46702 5.35084 9.34981 5.23363C9.2326 5.11642 9.16675 4.95745 9.16675 4.79169C9.16675 4.62593 9.2326 4.46696 9.34981 4.34975C9.46702 4.23254 9.62599 4.16669 9.79175 4.16669H16.0417ZM16.0417 7.91669C16.2075 7.91669 16.3665 7.98254 16.4837 8.09975C16.6009 8.21696 16.6667 8.37593 16.6667 8.54169C16.6667 8.70745 16.6009 8.86642 16.4837 8.98363C16.3665 9.10084 16.2075 9.16669 16.0417 9.16669H9.79175C9.62599 9.16669 9.46702 9.10084 9.34981 8.98363C9.2326 8.86642 9.16675 8.70745 9.16675 8.54169C9.16675 8.37593 9.2326 8.21696 9.34981 8.09975C9.46702 7.98254 9.62599 7.91669 9.79175 7.91669H16.0417ZM16.6667 12.2917C16.6667 12.1259 16.6009 11.967 16.4837 11.8497C16.3665 11.7325 16.2075 11.6667 16.0417 11.6667H9.79175C9.62599 11.6667 9.46702 11.7325 9.34981 11.8497C9.2326 11.967 9.16675 12.1259 9.16675 12.2917C9.16675 12.4574 9.2326 12.6164 9.34981 12.7336C9.46702 12.8508 9.62599 12.9167 9.79175 12.9167H16.0417C16.2075 12.9167 16.3665 12.8508 16.4837 12.7336C16.6009 12.6164 16.6667 12.4574 16.6667 12.2917ZM16.0417 15.4167C16.2075 15.4167 16.3665 15.4825 16.4837 15.5997C16.6009 15.717 16.6667 15.8759 16.6667 16.0417C16.6667 16.2074 16.6009 16.3664 16.4837 16.4836C16.3665 16.6008 16.2075 16.6667 16.0417 16.6667H9.79175C9.62599 16.6667 9.46702 16.6008 9.34981 16.4836C9.2326 16.3664 9.16675 16.2074 9.16675 16.0417C9.16675 15.8759 9.2326 15.717 9.34981 15.5997C9.46702 15.4825 9.62599 15.4167 9.79175 15.4167H16.0417Z" fill="white"/>
<path d="M20 2.5C20 1.83696 19.7366 1.20107 19.2678 0.732233C18.7989 0.263392 18.163 0 17.5 0L2.5 0C1.83696 0 1.20107 0.263392 0.732233 0.732233C0.263392 1.20107 0 1.83696 0 2.5L0 17.5C0 18.163 0.263392 18.7989 0.732233 19.2678C1.20107 19.7366 1.83696 20 2.5 20H17.5C18.163 20 18.7989 19.7366 19.2678 19.2678C19.7366 18.7989 20 18.163 20 17.5V2.5ZM5 1.25V18.75H2.5C2.16848 18.75 1.85054 18.6183 1.61612 18.3839C1.3817 18.1495 1.25 17.8315 1.25 17.5V2.5C1.25 2.16848 1.3817 1.85054 1.61612 1.61612C1.85054 1.3817 2.16848 1.25 2.5 1.25H5ZM6.25 1.25H17.5C17.8315 1.25 18.1495 1.3817 18.3839 1.61612C18.6183 1.85054 18.75 2.16848 18.75 2.5V17.5C18.75 17.8315 18.6183 18.1495 18.3839 18.3839C18.1495 18.6183 17.8315 18.75 17.5 18.75H6.25V1.25Z" fill="white"/>
</g>
<defs>
<clipPath id="clip0_103_140">
<rect width="20" height="20" fill="white"/>
</clipPath>
</defs>
</svg>
