<svg width="20" height="20" viewBox="0 0 20 20" fill="none" xmlns="http://www.w3.org/2000/svg">
<path d="M10.2942 1.74002C10.2038 1.69187 10.1029 1.66669 10.0005 1.66669C9.89802 1.66669 9.79715 1.69187 9.70672 1.74002L0.331719 6.74002C0.231879 6.79337 0.1484 6.87282 0.0901965 6.96991C0.031993 7.067 0.00125 7.17807 0.00125 7.29127C0.00125 7.40447 0.031993 7.51554 0.0901965 7.61263C0.1484 7.70972 0.231879 7.78918 0.331719 7.84252L3.98547 9.79127L0.330469 11.74C0.230629 11.7934 0.14715 11.8728 0.0889465 11.9699C0.030743 12.067 0 12.1781 0 12.2913C0 12.4045 0.030743 12.5155 0.0889465 12.6126C0.14715 12.7097 0.230629 12.7892 0.330469 12.8425L9.70547 17.8425C9.7959 17.8907 9.89677 17.9159 9.99922 17.9159C10.1017 17.9159 10.2025 17.8907 10.293 17.8425L19.668 12.8425C19.7678 12.7892 19.8513 12.7097 19.9095 12.6126C19.9677 12.5155 19.9984 12.4045 19.9984 12.2913C19.9984 12.1781 19.9677 12.067 19.9095 11.9699C19.8513 11.8728 19.7678 11.7934 19.668 11.74L16.0167 9.79127L19.6692 7.84252C19.7691 7.78918 19.8525 7.70972 19.9107 7.61263C19.9689 7.51554 19.9997 7.40447 19.9997 7.29127C19.9997 7.17807 19.9689 7.067 19.9107 6.96991C19.8525 6.87282 19.7691 6.79337 19.6692 6.74002L10.2942 1.74002ZM14.688 10.5L18.048 12.2913L10.0005 16.5825L1.95297 12.2913L5.31297 10.5L9.70672 12.8425C9.79715 12.8907 9.89802 12.9159 10.0005 12.9159C10.1029 12.9159 10.2038 12.8907 10.2942 12.8425L14.688 10.5ZM10.0005 11.5825L1.95297 7.29127L10.0005 3.00002L18.048 7.29127L10.0005 11.5825Z" fill="white"/>
</svg>
