<svg width="20" height="20" viewBox="0 0 20 20" fill="none" xmlns="http://www.w3.org/2000/svg">
<path d="M9.70547 1.73996C9.7959 1.69181 9.89677 1.66663 9.99922 1.66663C10.1017 1.66663 10.2025 1.69181 10.293 1.73996L19.668 6.73996C19.7678 6.7933 19.8513 6.87276 19.9095 6.96985C19.9677 7.06694 19.9984 7.17801 19.9984 7.29121C19.9984 7.40441 19.9677 7.51548 19.9095 7.61257C19.8513 7.70966 19.7678 7.78911 19.668 7.84246L10.293 12.8425C10.2025 12.8906 10.1017 12.9158 9.99922 12.9158C9.89677 12.9158 9.7959 12.8906 9.70547 12.8425L0.330469 7.84246C0.230629 7.78911 0.14715 7.70966 0.0889465 7.61257C0.030743 7.51548 0 7.40441 0 7.29121C0 7.17801 0.030743 7.06694 0.0889465 6.96985C0.14715 6.87276 0.230629 6.7933 0.330469 6.73996L9.70547 1.73996Z" fill="white"/>
<path d="M2.65547 10.8334L0.330469 12.0734C0.230629 12.1267 0.14715 12.2062 0.0889465 12.3033C0.030743 12.4004 0 12.5114 0 12.6246C0 12.7378 0.030743 12.8489 0.0889465 12.946C0.14715 13.0431 0.230629 13.1225 0.330469 13.1759L9.70547 18.1759C9.7959 18.224 9.89677 18.2492 9.99922 18.2492C10.1017 18.2492 10.2025 18.224 10.293 18.1759L19.668 13.1759C19.7678 13.1225 19.8513 13.0431 19.9095 12.946C19.9677 12.8489 19.9984 12.7378 19.9984 12.6246C19.9984 12.5114 19.9677 12.4004 19.9095 12.3033C19.8513 12.2062 19.7678 12.1267 19.668 12.0734L17.343 10.8334L10.8805 14.2784C10.6092 14.4228 10.3066 14.4984 9.99922 14.4984C9.69188 14.4984 9.38925 14.4228 9.11797 14.2784L2.65547 10.8334Z" fill="white"/>
</svg>
