<svg width="20" height="20" viewBox="0 0 20 20" fill="none" xmlns="http://www.w3.org/2000/svg">
<circle cx="10" cy="10" r="9.5" stroke="white"/>
<path d="M7.93337 4.46577C7.95876 4.37939 8.01146 4.30355 8.08356 4.24962C8.15567 4.19569 8.2433 4.16657 8.33335 4.16663H11.6665C11.7325 4.16668 11.7975 4.1824 11.8562 4.21249C11.9149 4.24259 11.9657 4.2862 12.0042 4.33974C12.0428 4.39328 12.0681 4.45521 12.078 4.52044C12.088 4.58567 12.0823 4.65233 12.0615 4.71493L10.5782 9.16633H13.7497C13.8277 9.16627 13.9042 9.18813 13.9704 9.22941C14.0366 9.27068 14.0899 9.32972 14.1242 9.3998C14.1585 9.46988 14.1724 9.54818 14.1644 9.62579C14.1564 9.7034 14.1267 9.7772 14.0788 9.83879L8.24585 17.3383C8.1861 17.4155 8.10113 17.4693 8.00578 17.4903C7.91044 17.5112 7.81076 17.498 7.72415 17.453C7.63754 17.4079 7.56949 17.3339 7.53189 17.2438C7.49428 17.1537 7.48951 17.0533 7.5184 16.96L9.01914 12.0828H6.25014C6.18536 12.0829 6.12147 12.0678 6.06354 12.0388C6.0056 12.0098 5.95522 11.9678 5.91639 11.9159C5.87757 11.8641 5.85136 11.8039 5.83987 11.7401C5.82837 11.6764 5.83189 11.6108 5.85016 11.5487L7.93337 4.46577Z" fill="white"/>
</svg>
