<svg width="20" height="20" viewBox="0 0 20 20" fill="none" xmlns="http://www.w3.org/2000/svg">
<path d="M1.66675 3.54169C1.66675 3.04441 1.86429 2.56749 2.21592 2.21586C2.56755 1.86423 3.04447 1.66669 3.54175 1.66669H7.29175C7.78903 1.66669 8.26594 1.86423 8.61757 2.21586C8.9692 2.56749 9.16675 3.04441 9.16675 3.54169V7.29169C9.16675 7.78897 8.9692 8.26588 8.61757 8.61751C8.26594 8.96914 7.78903 9.16669 7.29175 9.16669H3.54175C3.04447 9.16669 2.56755 8.96914 2.21592 8.61751C1.86429 8.26588 1.66675 7.78897 1.66675 7.29169V3.54169ZM3.54175 2.91669C3.37599 2.91669 3.21702 2.98254 3.09981 3.09975C2.9826 3.21696 2.91675 3.37593 2.91675 3.54169V7.29169C2.91675 7.45745 2.9826 7.61642 3.09981 7.73363C3.21702 7.85084 3.37599 7.91669 3.54175 7.91669H7.29175C7.45751 7.91669 7.61648 7.85084 7.73369 7.73363C7.8509 7.61642 7.91675 7.45745 7.91675 7.29169V3.54169C7.91675 3.37593 7.8509 3.21696 7.73369 3.09975C7.61648 2.98254 7.45751 2.91669 7.29175 2.91669H3.54175ZM11.6667 3.54169C11.6667 3.04441 11.8643 2.56749 12.2159 2.21586C12.5676 1.86423 13.0445 1.66669 13.5417 1.66669H17.2917C17.789 1.66669 18.2659 1.86423 18.6176 2.21586C18.9692 2.56749 19.1667 3.04441 19.1667 3.54169V7.29169C19.1667 7.78897 18.9692 8.26588 18.6176 8.61751C18.2659 8.96914 17.789 9.16669 17.2917 9.16669H13.5417C13.0445 9.16669 12.5676 8.96914 12.2159 8.61751C11.8643 8.26588 11.6667 7.78897 11.6667 7.29169V3.54169ZM13.5417 2.91669C13.376 2.91669 13.217 2.98254 13.0998 3.09975C12.9826 3.21696 12.9167 3.37593 12.9167 3.54169V7.29169C12.9167 7.45745 12.9826 7.61642 13.0998 7.73363C13.217 7.85084 13.376 7.91669 13.5417 7.91669H17.2917C17.4575 7.91669 17.6165 7.85084 17.7337 7.73363C17.8509 7.61642 17.9167 7.45745 17.9167 7.29169V3.54169C17.9167 3.37593 17.8509 3.21696 17.7337 3.09975C17.6165 2.98254 17.4575 2.91669 17.2917 2.91669H13.5417ZM1.66675 13.5417C1.66675 13.0444 1.86429 12.5675 2.21592 12.2159C2.56755 11.8642 3.04447 11.6667 3.54175 11.6667H7.29175C7.78903 11.6667 8.26594 11.8642 8.61757 12.2159C8.9692 12.5675 9.16675 13.0444 9.16675 13.5417V17.2917C9.16675 17.789 8.9692 18.2659 8.61757 18.6175C8.26594 18.9691 7.78903 19.1667 7.29175 19.1667H3.54175C3.04447 19.1667 2.56755 18.9691 2.21592 18.6175C1.86429 18.2659 1.66675 17.789 1.66675 17.2917V13.5417ZM3.54175 12.9167C3.37599 12.9167 3.21702 12.9825 3.09981 13.0997C2.9826 13.217 2.91675 13.3759 2.91675 13.5417V17.2917C2.91675 17.4574 2.9826 17.6164 3.09981 17.7336C3.21702 17.8508 3.37599 17.9167 3.54175 17.9167H7.29175C7.45751 17.9167 7.61648 17.8508 7.73369 17.7336C7.8509 17.6164 7.91675 17.4574 7.91675 17.2917V13.5417C7.91675 13.3759 7.8509 13.217 7.73369 13.0997C7.61648 12.9825 7.45751 12.9167 7.29175 12.9167H3.54175ZM11.6667 13.5417C11.6667 13.0444 11.8643 12.5675 12.2159 12.2159C12.5676 11.8642 13.0445 11.6667 13.5417 11.6667H17.2917C17.789 11.6667 18.2659 11.8642 18.6176 12.2159C18.9692 12.5675 19.1667 13.0444 19.1667 13.5417V17.2917C19.1667 17.789 18.9692 18.2659 18.6176 18.6175C18.2659 18.9691 17.789 19.1667 17.2917 19.1667H13.5417C13.0445 19.1667 12.5676 18.9691 12.2159 18.6175C11.8643 18.2659 11.6667 17.789 11.6667 17.2917V13.5417ZM13.5417 12.9167C13.376 12.9167 13.217 12.9825 13.0998 13.0997C12.9826 13.217 12.9167 13.3759 12.9167 13.5417V17.2917C12.9167 17.4574 12.9826 17.6164 13.0998 17.7336C13.217 17.8508 13.376 17.9167 13.5417 17.9167H17.2917C17.4575 17.9167 17.6165 17.8508 17.7337 17.7336C17.8509 17.6164 17.9167 17.4574 17.9167 17.2917V13.5417C17.9167 13.3759 17.8509 13.217 17.7337 13.0997C17.6165 12.9825 17.4575 12.9167 17.2917 12.9167H13.5417Z" fill="white"/>
</svg>
