<svg width="20" height="20" viewBox="0 0 20 20" fill="none" xmlns="http://www.w3.org/2000/svg">
<g clip-path="url(#clip0_103_117)">
<path d="M0 1.875V16.25C0 16.5815 0.131696 16.8995 0.366117 17.1339C0.600537 17.3683 0.918479 17.5 1.25 17.5V1.875C1.25 1.70924 1.31585 1.55027 1.43306 1.43306C1.55027 1.31585 1.70924 1.25 1.875 1.25H17.5C17.5 0.918479 17.3683 0.600537 17.1339 0.366117C16.8995 0.131696 16.5815 0 16.25 0L1.875 0C1.37772 0 0.900805 0.197544 0.549175 0.549175C0.197544 0.900805 0 1.37772 0 1.875H0Z" fill="white"/>
<path d="M4.375 2.5C3.87772 2.5 3.40081 2.69754 3.04917 3.04917C2.69754 3.40081 2.5 3.87772 2.5 4.375V18.125C2.5 18.6223 2.69754 19.0992 3.04917 19.4508C3.40081 19.8025 3.87772 20 4.375 20H11.9825C12.4796 19.9996 12.9562 19.8017 13.3075 19.45L19.4513 13.3075C19.8025 12.956 19.9999 12.4794 20 11.9825V4.375C20 3.87772 19.8025 3.40081 19.4508 3.04917C19.0992 2.69754 18.6223 2.5 18.125 2.5H4.375ZM11.875 13.125C11.875 12.7935 12.0067 12.4755 12.2411 12.2411C12.4755 12.0067 12.7935 11.875 13.125 11.875H18.62C18.6819 11.8749 18.7424 11.8932 18.7939 11.9275C18.8454 11.9618 18.8855 12.0107 18.9092 12.0678C18.9329 12.125 18.9391 12.1879 18.927 12.2486C18.9149 12.3093 18.8851 12.365 18.8412 12.4088L12.4088 18.8412C12.365 18.8851 12.3093 18.9149 12.2486 18.927C12.1879 18.9391 12.125 18.9329 12.0678 18.9092C12.0107 18.8855 11.9618 18.8454 11.9275 18.7939C11.8932 18.7424 11.8749 18.6819 11.875 18.62V13.125Z" fill="white"/>
</g>
<defs>
<clipPath id="clip0_103_117">
<rect width="20" height="20" fill="white"/>
</clipPath>
</defs>
</svg>
