<svg width="20" height="20" viewBox="0 0 20 20" fill="none" xmlns="http://www.w3.org/2000/svg">
<g clip-path="url(#clip0_103_120)">
<path d="M10 18.75C7.67936 18.75 5.45376 17.8281 3.81282 16.1872C2.17187 14.5462 1.25 12.3206 1.25 10C1.25 7.67936 2.17187 5.45376 3.81282 3.81282C5.45376 2.17187 7.67936 1.25 10 1.25C12.3206 1.25 14.5462 2.17187 16.1872 3.81282C17.8281 5.45376 18.75 7.67936 18.75 10C18.75 12.3206 17.8281 14.5462 16.1872 16.1872C14.5462 17.8281 12.3206 18.75 10 18.75ZM10 20C12.6522 20 15.1957 18.9464 17.0711 17.0711C18.9464 15.1957 20 12.6522 20 10C20 7.34784 18.9464 4.8043 17.0711 2.92893C15.1957 1.05357 12.6522 0 10 0C7.34784 0 4.8043 1.05357 2.92893 2.92893C1.05357 4.8043 0 7.34784 0 10C0 12.6522 1.05357 15.1957 2.92893 17.0711C4.8043 18.9464 7.34784 20 10 20Z" fill="white"/>
<path d="M13.5591 6.10506C13.5502 6.11369 13.5419 6.12288 13.5341 6.13256L9.19286 11.6638L6.57661 9.04631C6.3989 8.88071 6.16384 8.79056 5.92096 8.79484C5.67808 8.79913 5.44635 8.89752 5.27459 9.06929C5.10282 9.24105 5.00443 9.47278 5.00015 9.71566C4.99586 9.95854 5.08601 10.1936 5.25161 10.3713L8.55911 13.6801C8.64822 13.769 8.75432 13.8391 8.87109 13.8861C8.98787 13.9332 9.11292 13.9562 9.2388 13.9539C9.36467 13.9516 9.48878 13.9239 9.60373 13.8726C9.71869 13.8212 9.82212 13.7472 9.90786 13.6551L14.8979 7.41756C15.0678 7.23923 15.1607 7.00118 15.1565 6.7549C15.1523 6.50861 15.0513 6.27387 14.8754 6.10143C14.6995 5.92899 14.4628 5.8327 14.2165 5.83338C13.9702 5.83406 13.7341 5.93165 13.5591 6.10506Z" fill="white"/>
</g>
<defs>
<clipPath id="clip0_103_120">
<rect width="20" height="20" fill="white"/>
</clipPath>
</defs>
</svg>
