<svg width="16" height="16" viewBox="0 0 16 16" fill="none" xmlns="http://www.w3.org/2000/svg">
<path fill-rule="evenodd" clip-rule="evenodd" d="M8.33325 0.999629C7.93929 0.999629 7.54918 1.07723 7.1852 1.22799C6.82122 1.37875 6.49051 1.59973 6.21193 1.87831C5.93336 2.15688 5.71238 2.4876 5.56161 2.85158C5.41085 3.21556 5.33325 3.60566 5.33325 3.99963C5.33325 4.39359 5.41085 4.7837 5.56161 5.14768C5.71238 5.51166 5.93336 5.84237 6.21193 6.12095C6.49051 6.39953 6.82122 6.6205 7.1852 6.77127C7.54918 6.92203 7.93929 6.99963 8.33325 6.99963C9.1289 6.99963 9.89196 6.68356 10.4546 6.12095C11.0172 5.55834 11.3333 4.79528 11.3333 3.99963C11.3333 3.20398 11.0172 2.44092 10.4546 1.87831C9.89196 1.3157 9.1289 0.999629 8.33325 0.999629ZM4.33325 3.99963C4.33332 3.22986 4.55551 2.47645 4.97315 1.82982C5.39078 1.18319 5.98613 0.670801 6.68776 0.354136C7.38938 0.0374708 8.16747 -0.0700184 8.92867 0.044566C9.68987 0.15915 10.4018 0.490941 10.9791 1.00013C11.5564 1.50931 11.9746 2.17426 12.1833 2.91518C12.3921 3.65611 12.3826 4.44153 12.1561 5.17722C11.9296 5.9129 11.4955 6.56759 10.9061 7.06272C10.3167 7.55786 9.59699 7.87241 8.83325 7.96863V13.4996C8.83325 13.6322 8.78057 13.7594 8.68681 13.8532C8.59304 13.947 8.46586 13.9996 8.33325 13.9996C8.20064 13.9996 8.07347 13.947 7.9797 13.8532C7.88593 13.7594 7.83325 13.6322 7.83325 13.4996V7.96963C6.86622 7.84779 5.97694 7.37707 5.33247 6.64586C4.68799 5.91466 4.33267 4.97331 4.33325 3.99863V3.99963ZM6.82625 12.5736C6.84794 12.7044 6.81683 12.8384 6.73976 12.9462C6.6627 13.054 6.54598 13.1268 6.41525 13.1486C5.70325 13.2666 5.13525 13.4436 4.76025 13.6416C4.6225 13.7079 4.4973 13.7975 4.39025 13.9066C4.36605 13.933 4.34675 13.9635 4.33325 13.9966V13.9996L4.33525 14.0076C4.33919 14.0193 4.34456 14.0303 4.35125 14.0406C4.39072 14.0985 4.43975 14.1492 4.49625 14.1906C4.66125 14.3206 4.93125 14.4606 5.30925 14.5856C6.06025 14.8356 7.12925 14.9996 8.33325 14.9996C9.53725 14.9996 10.6063 14.8366 11.3573 14.5856C11.7353 14.4596 12.0053 14.3206 12.1703 14.1906C12.2271 14.1493 12.2765 14.0986 12.3163 14.0406C12.3226 14.0303 12.3276 14.0192 12.3313 14.0076L12.3333 13.9996V13.9956C12.3198 13.9625 12.3005 13.932 12.2763 13.9056C12.1691 13.7969 12.0439 13.7075 11.9063 13.6416C11.5303 13.4436 10.9633 13.2666 10.2513 13.1486C10.1849 13.1396 10.1211 13.1174 10.0635 13.0833C10.0059 13.0492 9.95578 13.0039 9.91605 12.95C9.87631 12.8961 9.84779 12.8349 9.83218 12.7698C9.81657 12.7047 9.81418 12.6371 9.82517 12.5711C9.83615 12.5051 9.86027 12.442 9.89611 12.3854C9.93195 12.3289 9.97877 12.2801 10.0338 12.2421C10.0888 12.204 10.1509 12.1773 10.2165 12.1637C10.282 12.15 10.3496 12.1497 10.4153 12.1626C11.1853 12.2896 11.8673 12.4906 12.3723 12.7566C12.8333 12.9996 13.3333 13.3996 13.3333 13.9996C13.3333 14.4256 13.0733 14.7516 12.7893 14.9766C12.4993 15.2046 12.1093 15.3896 11.6733 15.5346C10.7953 15.8276 9.61425 15.9996 8.33325 15.9996C7.05225 15.9996 5.87125 15.8276 4.99325 15.5346C4.55725 15.3896 4.16725 15.2046 3.87725 14.9766C3.59325 14.7516 3.33325 14.4256 3.33325 13.9996C3.33325 13.4006 3.83325 12.9996 4.29425 12.7566C4.79925 12.4906 5.48125 12.2896 6.25125 12.1626C6.382 12.1409 6.516 12.1721 6.62382 12.2491C6.73164 12.3262 6.80445 12.4429 6.82625 12.5736Z" fill="white"/>
</svg>
