<svg width="135" height="20" viewBox="0 0 135 20" fill="none" xmlns="http://www.w3.org/2000/svg">
<path d="M0.690419 19.7222C0.506307 19.7222 0.340607 19.6574 0.193317 19.5278C0.0644392 19.3796 0 19.213 0 19.0278V0.972223C0 0.768518 0.0644392 0.601852 0.193317 0.472223C0.340607 0.342593 0.506307 0.277778 0.690419 0.277778H3.67303C4.11489 0.277778 4.43709 0.481481 4.63961 0.888889L9.50016 9.63889L14.3607 0.888889C14.5632 0.481481 14.8854 0.277778 15.3273 0.277778H18.2823C18.4848 0.277778 18.6505 0.342593 18.7794 0.472223C18.9267 0.601852 19.0003 0.768518 19.0003 0.972223V19.0278C19.0003 19.2315 18.9267 19.3981 18.7794 19.5278C18.6505 19.6574 18.4848 19.7222 18.2823 19.7222H14.9959C14.7934 19.7222 14.6185 19.6574 14.4712 19.5278C14.3423 19.3981 14.2779 19.2315 14.2779 19.0278V8.61111L11.1848 14.4167C10.9454 14.8426 10.6232 15.0556 10.2182 15.0556H8.78213C8.54278 15.0556 8.34946 15 8.20217 14.8889C8.05488 14.7778 7.92601 14.6204 7.81554 14.4167L4.69485 8.61111V19.0278C4.69485 19.213 4.63041 19.3796 4.50153 19.5278C4.37265 19.6574 4.20695 19.7222 4.00443 19.7222H0.690419Z" fill="white"/>
<path d="M29.0839 19.7222C28.8998 19.7222 28.7341 19.6574 28.5868 19.5278C28.4579 19.3796 28.3935 19.213 28.3935 19.0278V13.0556L21.9864 1.16667C21.9311 1 21.9035 0.898148 21.9035 0.861111C21.9035 0.712963 21.9588 0.583334 22.0692 0.472223C22.1981 0.342593 22.3454 0.277778 22.5111 0.277778H25.9632C26.3314 0.277778 26.6536 0.472222 26.9298 0.861111L30.879 8.02778L34.8558 0.861111C35.0767 0.472222 35.3989 0.277778 35.8224 0.277778H39.2745C39.4402 0.277778 39.5782 0.342593 39.6887 0.472223C39.7992 0.583334 39.8544 0.712963 39.8544 0.861111C39.8544 0.953704 39.836 1.05556 39.7992 1.16667L33.3921 13.0556V19.0278C33.3921 19.2315 33.3185 19.3981 33.1712 19.5278C33.0423 19.6574 32.8766 19.7222 32.6741 19.7222H29.0839Z" fill="white"/>
<path d="M43.4629 19.7222C43.2788 19.7222 43.1131 19.6574 42.9658 19.5278C42.837 19.3796 42.7725 19.213 42.7725 19.0278V0.972223C42.7725 0.768518 42.837 0.601852 42.9658 0.472223C43.1131 0.342593 43.2788 0.277778 43.4629 0.277778H56.1666C56.3692 0.277778 56.5349 0.342593 56.6637 0.472223C56.7926 0.601852 56.8571 0.768518 56.8571 0.972223V3.77778C56.8571 3.96296 56.7926 4.12963 56.6637 4.27778C56.5349 4.40741 56.3692 4.47222 56.1666 4.47222H47.6331V8.55556H55.6143C55.8168 8.55556 55.9825 8.62963 56.1114 8.77778C56.2403 8.90741 56.3047 9.07407 56.3047 9.27778V12.0556C56.3047 12.2407 56.2403 12.4074 56.1114 12.5556C55.9825 12.6852 55.8168 12.75 55.6143 12.75H47.6331V19.0278C47.6331 19.2315 47.5686 19.3981 47.4397 19.5278C47.3109 19.6574 47.1452 19.7222 46.9426 19.7222H43.4629Z" fill="white"/>
<path d="M68.1601 20C65.5641 20 63.5205 19.3611 62.0291 18.0833C60.5378 16.8056 59.7462 14.9259 59.6541 12.4444C59.6357 11.9074 59.6265 11.1111 59.6265 10.0556C59.6265 8.98148 59.6357 8.17593 59.6541 7.63889C59.7462 5.19444 60.5471 3.31482 62.0568 2C63.5849 0.666667 65.6193 0 68.1601 0C70.7008 0 72.7352 0.666667 74.2634 2C75.7915 3.31482 76.5924 5.19444 76.666 7.63889C76.7028 8.71296 76.7213 9.51852 76.7213 10.0556C76.7213 10.5741 76.7028 11.3704 76.666 12.4444C76.574 14.9259 75.7823 16.8056 74.291 18.0833C72.7997 19.3611 70.756 20 68.1601 20ZM68.1601 16C69.1727 16 69.9736 15.6944 70.5627 15.0833C71.1703 14.4722 71.4925 13.537 71.5293 12.2778C71.5661 11.2037 71.5845 10.4444 71.5845 10C71.5845 9.51852 71.5661 8.75926 71.5293 7.72222C71.4925 6.46296 71.1703 5.52778 70.5627 4.91667C69.9552 4.30556 69.1543 4 68.1601 4C67.1659 4 66.365 4.30556 65.7574 4.91667C65.1683 5.52778 64.8461 6.46296 64.7908 7.72222C64.7724 8.24074 64.7632 9 64.7632 10C64.7632 10.9815 64.7724 11.7407 64.7908 12.2778C64.8461 13.537 65.1683 14.4722 65.7574 15.0833C66.3466 15.6944 67.1475 16 68.1601 16Z" fill="white"/>
<path d="M81.1652 19.7222C80.9811 19.7222 80.8154 19.6574 80.6681 19.5278C80.5392 19.3796 80.4748 19.213 80.4748 19.0278V0.972223C80.4748 0.768518 80.5392 0.601852 80.6681 0.472223C80.8154 0.342593 80.9811 0.277778 81.1652 0.277778H88.6769C91.0888 0.277778 92.9667 0.833333 94.3108 1.94444C95.6732 3.03704 96.3544 4.59259 96.3544 6.61111C96.3544 7.90741 96.0506 9.00926 95.443 9.91667C94.8355 10.8241 93.9978 11.5185 92.9299 12L96.7134 18.8333C96.7686 18.9444 96.7963 19.0463 96.7963 19.1389C96.7963 19.287 96.7318 19.4259 96.6029 19.5556C96.4925 19.6667 96.3636 19.7222 96.2163 19.7222H92.5433C92.0094 19.7222 91.6319 19.4722 91.411 18.9722L88.2627 12.8611H85.4458V19.0278C85.4458 19.2315 85.3721 19.3981 85.2248 19.5278C85.096 19.6574 84.9303 19.7222 84.7277 19.7222H81.1652ZM88.6217 8.91667C89.4686 8.91667 90.113 8.71296 90.5549 8.30556C90.9967 7.87963 91.2177 7.2963 91.2177 6.55556C91.2177 5.81482 90.9967 5.23148 90.5549 4.80556C90.1314 4.36111 89.487 4.13889 88.6217 4.13889H85.4458V8.91667H88.6217Z" fill="white"/>
<path d="M107.967 20C105.334 20 103.272 19.3611 101.78 18.0833C100.308 16.787 99.5251 14.9167 99.433 12.4722C99.4146 11.9722 99.4054 11.1574 99.4054 10.0278C99.4054 8.87963 99.4146 8.0463 99.433 7.52778C99.5251 5.12037 100.326 3.26852 101.836 1.97222C103.345 0.657407 105.389 0 107.967 0C109.587 0 111.041 0.277778 112.33 0.833334C113.619 1.37037 114.631 2.14815 115.368 3.16667C116.123 4.16667 116.509 5.34259 116.528 6.69444V6.75C116.528 6.89815 116.463 7.02778 116.334 7.13889C116.224 7.23148 116.095 7.27778 115.948 7.27778H112.22C111.98 7.27778 111.796 7.23148 111.667 7.13889C111.538 7.02778 111.428 6.83333 111.336 6.55556C111.078 5.61111 110.673 4.9537 110.121 4.58333C109.568 4.19444 108.841 4 107.939 4C105.766 4 104.643 5.22222 104.57 7.66667C104.551 8.16667 104.542 8.93519 104.542 9.97222C104.542 11.0093 104.551 11.7963 104.57 12.3333C104.643 14.7778 105.766 16 107.939 16C108.841 16 109.578 15.8056 110.148 15.4167C110.719 15.0093 111.115 14.3519 111.336 13.4444C111.409 13.1667 111.511 12.9815 111.64 12.8889C111.768 12.7778 111.962 12.7222 112.22 12.7222H115.948C116.114 12.7222 116.252 12.7778 116.362 12.8889C116.491 13 116.546 13.1389 116.528 13.3056C116.509 14.6574 116.123 15.8426 115.368 16.8611C114.631 17.8611 113.619 18.6389 112.33 19.1944C111.041 19.7315 109.587 20 107.967 20Z" fill="white"/>
<path d="M120.674 19.7222C120.49 19.7222 120.325 19.6574 120.177 19.5278C120.048 19.3796 119.984 19.213 119.984 19.0278V0.972223C119.984 0.768518 120.048 0.601852 120.177 0.472223C120.325 0.342593 120.49 0.277778 120.674 0.277778H133.571C133.774 0.277778 133.94 0.342593 134.068 0.472223C134.197 0.601852 134.262 0.768518 134.262 0.972223V3.58333C134.262 3.76852 134.197 3.93519 134.068 4.08333C133.94 4.21296 133.774 4.27778 133.571 4.27778H124.762V8.02778H132.964C133.166 8.02778 133.332 8.10185 133.461 8.25C133.59 8.37963 133.654 8.5463 133.654 8.75V11.1667C133.654 11.3519 133.59 11.5185 133.461 11.6667C133.332 11.7963 133.166 11.8611 132.964 11.8611H124.762V15.7222H133.792C133.995 15.7222 134.161 15.787 134.289 15.9167C134.418 16.0463 134.483 16.213 134.483 16.4167V19.0278C134.483 19.213 134.418 19.3796 134.289 19.5278C134.161 19.6574 133.995 19.7222 133.792 19.7222H120.674Z" fill="white"/>
</svg>
