<svg width="28" height="28" viewBox="0 0 28 28" fill="none" xmlns="http://www.w3.org/2000/svg">
<g clip-path="url(#clip0_142_174)">
<path d="M10.5 14C11.8924 14 13.2277 13.4469 14.2123 12.4623C15.1969 11.4777 15.75 10.1424 15.75 8.75C15.75 7.35761 15.1969 6.02226 14.2123 5.03769C13.2277 4.05312 11.8924 3.5 10.5 3.5C9.10761 3.5 7.77226 4.05312 6.78769 5.03769C5.80312 6.02226 5.25 7.35761 5.25 8.75C5.25 10.1424 5.80312 11.4777 6.78769 12.4623C7.77226 13.4469 9.10761 14 10.5 14ZM14 8.75C14 9.67826 13.6313 10.5685 12.9749 11.2249C12.3185 11.8813 11.4283 12.25 10.5 12.25C9.57174 12.25 8.6815 11.8813 8.02513 11.2249C7.36875 10.5685 7 9.67826 7 8.75C7 7.82174 7.36875 6.9315 8.02513 6.27513C8.6815 5.61875 9.57174 5.25 10.5 5.25C11.4283 5.25 12.3185 5.61875 12.9749 6.27513C13.6313 6.9315 14 7.82174 14 8.75ZM21 22.75C21 24.5 19.25 24.5 19.25 24.5H1.75C1.75 24.5 0 24.5 0 22.75C0 21 1.75 15.75 10.5 15.75C19.25 15.75 21 21 21 22.75ZM19.25 22.743C19.2482 22.3125 18.9805 21.0175 17.794 19.831C16.653 18.69 14.5057 17.5 10.5 17.5C6.4925 17.5 4.347 18.69 3.206 19.831C2.0195 21.0175 1.7535 22.3125 1.75 22.743H19.25Z" fill="url(#paint0_linear_142_174)"/>
<path fill-rule="evenodd" clip-rule="evenodd" d="M24.2083 9.33325C24.4403 9.33325 24.6629 9.42544 24.827 9.58953C24.9911 9.75363 25.0833 9.97619 25.0833 10.2083V12.8333H27.7083C27.9403 12.8333 28.1629 12.9254 28.327 13.0895C28.4911 13.2536 28.5833 13.4762 28.5833 13.7083C28.5833 13.9403 28.4911 14.1629 28.327 14.327C28.1629 14.4911 27.9403 14.5833 27.7083 14.5833H25.0833V17.2083C25.0833 17.4403 24.9911 17.6629 24.827 17.827C24.6629 17.9911 24.4403 18.0833 24.2083 18.0833C23.9762 18.0833 23.7536 17.9911 23.5895 17.827C23.4254 17.6629 23.3333 17.4403 23.3333 17.2083V14.5833H20.7083C20.4762 14.5833 20.2536 14.4911 20.0895 14.327C19.9254 14.1629 19.8333 13.9403 19.8333 13.7083C19.8333 13.4762 19.9254 13.2536 20.0895 13.0895C20.2536 12.9254 20.4762 12.8333 20.7083 12.8333H23.3333V10.2083C23.3333 9.97619 23.4254 9.75363 23.5895 9.58953C23.7536 9.42544 23.9762 9.33325 24.2083 9.33325Z" fill="url(#paint1_linear_142_174)"/>
</g>
<defs>
<linearGradient id="paint0_linear_142_174" x1="1.64729" y1="6.67607" x2="20.0815" y2="19.3004" gradientUnits="userSpaceOnUse">
<stop stop-color="#1BC8FF"/>
<stop offset="1" stop-color="#C41BFF"/>
</linearGradient>
<linearGradient id="paint1_linear_142_174" x1="20.5196" y1="10.6566" x2="28.2006" y2="15.9167" gradientUnits="userSpaceOnUse">
<stop stop-color="#1BC8FF"/>
<stop offset="1" stop-color="#C41BFF"/>
</linearGradient>
<clipPath id="clip0_142_174">
<rect width="28" height="28" fill="white"/>
</clipPath>
</defs>
</svg>
