<svg width="28" height="28" viewBox="0 0 28 28" fill="none" xmlns="http://www.w3.org/2000/svg">
<path fill-rule="evenodd" clip-rule="evenodd" d="M15.4238 9.59044C15.5051 9.50895 15.6017 9.4443 15.708 9.40019C15.8143 9.35608 15.9282 9.33337 16.0433 9.33337C16.1584 9.33337 16.2724 9.35608 16.3787 9.40019C16.485 9.4443 16.5815 9.50895 16.6628 9.59044L20.1628 13.0904C20.2443 13.1717 20.3089 13.2683 20.3531 13.3746C20.3972 13.4809 20.4199 13.5948 20.4199 13.7099C20.4199 13.825 20.3972 13.939 20.3531 14.0453C20.3089 14.1516 20.2443 14.2482 20.1628 14.3294L16.6628 17.8294C16.4985 17.9937 16.2757 18.086 16.0433 18.086C15.811 18.086 15.5881 17.9937 15.4238 17.8294C15.2595 17.6651 15.1672 17.4423 15.1672 17.2099C15.1672 16.9776 15.2595 16.7547 15.4238 16.5904L18.3061 13.7099L15.4238 10.8294C15.3423 10.7482 15.2777 10.6516 15.2336 10.5453C15.1895 10.439 15.1667 10.325 15.1667 10.2099C15.1667 10.0948 15.1895 9.98088 15.2336 9.87458C15.2777 9.76827 15.3423 9.67172 15.4238 9.59044ZM13.1628 9.59044C13.0815 9.50895 12.985 9.4443 12.8787 9.40019C12.7724 9.35608 12.6584 9.33337 12.5433 9.33337C12.4282 9.33337 12.3143 9.35608 12.208 9.40019C12.1016 9.4443 12.0051 9.50895 11.9238 9.59044L8.42381 13.0904C8.34233 13.1717 8.27768 13.2683 8.23356 13.3746C8.18945 13.4809 8.16675 13.5948 8.16675 13.7099C8.16675 13.825 8.18945 13.939 8.23356 14.0453C8.27768 14.1516 8.34233 14.2482 8.42381 14.3294L11.9238 17.8294C12.0881 17.9937 12.311 18.086 12.5433 18.086C12.7757 18.086 12.9985 17.9937 13.1628 17.8294C13.3271 17.6651 13.4194 17.4423 13.4194 17.2099C13.4194 16.9776 13.3271 16.7547 13.1628 16.5904L10.2806 13.7099L13.1628 10.8294C13.2443 10.7482 13.3089 10.6516 13.3531 10.5453C13.3972 10.439 13.4199 10.325 13.4199 10.2099C13.4199 10.0948 13.3972 9.98088 13.3531 9.87458C13.3089 9.76827 13.2443 9.67172 13.1628 9.59044Z" fill="url(#paint0_linear_142_141)"/>
<path d="M5.83325 0H23.3333C24.2615 0 25.1517 0.368749 25.8081 1.02513C26.4645 1.6815 26.8333 2.57174 26.8333 3.5V24.5C26.8333 25.4283 26.4645 26.3185 25.8081 26.9749C25.1517 27.6313 24.2615 28 23.3333 28H5.83325C4.90499 28 4.01476 27.6313 3.35838 26.9749C2.702 26.3185 2.33325 25.4283 2.33325 24.5V22.75H4.08325V24.5C4.08325 24.9641 4.26763 25.4092 4.59581 25.7374C4.924 26.0656 5.36912 26.25 5.83325 26.25H23.3333C23.7974 26.25 24.2425 26.0656 24.5707 25.7374C24.8989 25.4092 25.0833 24.9641 25.0833 24.5V3.5C25.0833 3.03587 24.8989 2.59075 24.5707 2.26256C24.2425 1.93437 23.7974 1.75 23.3333 1.75H5.83325C5.36912 1.75 4.924 1.93437 4.59581 2.26256C4.26763 2.59075 4.08325 3.03587 4.08325 3.5V5.25H2.33325V3.5C2.33325 2.57174 2.702 1.6815 3.35838 1.02513C4.01476 0.368749 4.90499 0 5.83325 0V0Z" fill="url(#paint1_linear_142_141)"/>
<path d="M1.75 8.75V7.875C1.75 7.64294 1.84219 7.42038 2.00628 7.25628C2.17038 7.09219 2.39294 7 2.625 7C2.85706 7 3.07962 7.09219 3.24372 7.25628C3.40781 7.42038 3.5 7.64294 3.5 7.875V8.75H4.375C4.60706 8.75 4.82962 8.84219 4.99372 9.00628C5.15781 9.17038 5.25 9.39294 5.25 9.625C5.25 9.85706 5.15781 10.0796 4.99372 10.2437C4.82962 10.4078 4.60706 10.5 4.375 10.5H0.875C0.642936 10.5 0.420376 10.4078 0.256282 10.2437C0.0921872 10.0796 0 9.85706 0 9.625C0 9.39294 0.0921872 9.17038 0.256282 9.00628C0.420376 8.84219 0.642936 8.75 0.875 8.75H1.75ZM1.75 14V13.125C1.75 12.8929 1.84219 12.6704 2.00628 12.5063C2.17038 12.3422 2.39294 12.25 2.625 12.25C2.85706 12.25 3.07962 12.3422 3.24372 12.5063C3.40781 12.6704 3.5 12.8929 3.5 13.125V14H4.375C4.60706 14 4.82962 14.0922 4.99372 14.2563C5.15781 14.4204 5.25 14.6429 5.25 14.875C5.25 15.1071 5.15781 15.3296 4.99372 15.4937C4.82962 15.6578 4.60706 15.75 4.375 15.75H0.875C0.642936 15.75 0.420376 15.6578 0.256282 15.4937C0.0921872 15.3296 0 15.1071 0 14.875C0 14.6429 0.0921872 14.4204 0.256282 14.2563C0.420376 14.0922 0.642936 14 0.875 14H1.75ZM1.75 19.25V18.375C1.75 18.1429 1.84219 17.9204 2.00628 17.7563C2.17038 17.5922 2.39294 17.5 2.625 17.5C2.85706 17.5 3.07962 17.5922 3.24372 17.7563C3.40781 17.9204 3.5 18.1429 3.5 18.375V19.25H4.375C4.60706 19.25 4.82962 19.3422 4.99372 19.5063C5.15781 19.6704 5.25 19.8929 5.25 20.125C5.25 20.3571 5.15781 20.5796 4.99372 20.7437C4.82962 20.9078 4.60706 21 4.375 21H0.875C0.642936 21 0.420376 20.9078 0.256282 20.7437C0.0921872 20.5796 0 20.3571 0 20.125C0 19.8929 0.0921872 19.6704 0.256282 19.5063C0.420376 19.3422 0.642936 19.25 0.875 19.25H1.75Z" fill="url(#paint2_linear_142_141)"/>
<defs>
<linearGradient id="paint0_linear_142_141" x1="9.12791" y1="10.6571" x2="17.3611" y2="18.5504" gradientUnits="userSpaceOnUse">
<stop stop-color="#1BC8FF"/>
<stop offset="1" stop-color="#C41BFF"/>
</linearGradient>
<linearGradient id="paint1_linear_142_141" x1="4.25509" y1="4.23476" x2="27.5011" y2="18.1644" gradientUnits="userSpaceOnUse">
<stop stop-color="#1BC8FF"/>
<stop offset="1" stop-color="#C41BFF"/>
</linearGradient>
<linearGradient id="paint2_linear_142_141" x1="0.411823" y1="9.11738" x2="6.76289" y2="10.7484" gradientUnits="userSpaceOnUse">
<stop stop-color="#1BC8FF"/>
<stop offset="1" stop-color="#C41BFF"/>
</linearGradient>
</defs>
</svg>
