<svg width="28" height="28" viewBox="0 0 28 28" fill="none" xmlns="http://www.w3.org/2000/svg">
<path d="M9.91785 15.7511C9.91785 15.519 10.01 15.2965 10.1741 15.1324C10.3382 14.9683 10.5608 14.8761 10.7929 14.8761H16.0429C16.2749 14.8761 16.4975 14.9683 16.6616 15.1324C16.8257 15.2965 16.9179 15.519 16.9179 15.7511C16.9179 15.9832 16.8257 16.2057 16.6616 16.3698C16.4975 16.5339 16.2749 16.6261 16.0429 16.6261H10.7929C10.5608 16.6261 10.3382 16.5339 10.1741 16.3698C10.01 16.2057 9.91785 15.9832 9.91785 15.7511ZM6.16235 7.25661C6.081 7.17525 5.98442 7.11072 5.87812 7.06669C5.77183 7.02266 5.6579 7 5.54285 7C5.4278 7 5.31388 7.02266 5.20758 7.06669C5.10129 7.11072 5.00471 7.17525 4.92335 7.25661C4.842 7.33796 4.77747 7.43454 4.73344 7.54083C4.68941 7.64713 4.66675 7.76105 4.66675 7.87611C4.66675 7.99116 4.68941 8.10508 4.73344 8.21138C4.77747 8.31767 4.842 8.41425 4.92335 8.49561L7.8056 11.3761L4.92335 14.2566C4.842 14.338 4.77747 14.4345 4.73344 14.5408C4.68941 14.6471 4.66675 14.7611 4.66675 14.8761C4.66675 14.9912 4.68941 15.1051 4.73344 15.2114C4.77747 15.3177 4.842 15.4143 4.92335 15.4956C5.08765 15.6599 5.3105 15.7522 5.54285 15.7522C5.6579 15.7522 5.77183 15.7295 5.87812 15.6855C5.98442 15.6415 6.081 15.577 6.16235 15.4956L9.66235 11.9956C9.74384 11.9143 9.80849 11.8178 9.8526 11.7115C9.89671 11.6052 9.91942 11.4912 9.91942 11.3761C9.91942 11.261 9.89671 11.147 9.8526 11.0407C9.80849 10.9344 9.74384 10.8379 9.66235 10.7566L6.16235 7.25661Z" fill="url(#paint0_linear_142_164)"/>
<path d="M3.5 2.33337C2.57174 2.33337 1.6815 2.70212 1.02513 3.3585C0.368749 4.01488 0 4.90512 0 5.83337L0 23.3334C0 24.2616 0.368749 25.1519 1.02513 25.8082C1.6815 26.4646 2.57174 26.8334 3.5 26.8334H24.5C25.4283 26.8334 26.3185 26.4646 26.9749 25.8082C27.6313 25.1519 28 24.2616 28 23.3334V5.83337C28 4.90512 27.6313 4.01488 26.9749 3.3585C26.3185 2.70212 25.4283 2.33337 24.5 2.33337H3.5ZM24.5 4.08337C24.9641 4.08337 25.4092 4.26775 25.7374 4.59594C26.0656 4.92413 26.25 5.36925 26.25 5.83337V23.3334C26.25 23.7975 26.0656 24.2426 25.7374 24.5708C25.4092 24.899 24.9641 25.0834 24.5 25.0834H3.5C3.03587 25.0834 2.59075 24.899 2.26256 24.5708C1.93437 24.2426 1.75 23.7975 1.75 23.3334V5.83337C1.75 5.36925 1.93437 4.92413 2.26256 4.59594C2.59075 4.26775 3.03587 4.08337 3.5 4.08337H24.5Z" fill="url(#paint1_linear_142_164)"/>
<defs>
<linearGradient id="paint0_linear_142_164" x1="5.62775" y1="8.45587" x2="14.6056" y2="16.2808" gradientUnits="userSpaceOnUse">
<stop stop-color="#1BC8FF"/>
<stop offset="1" stop-color="#C41BFF"/>
</linearGradient>
<linearGradient id="paint1_linear_142_164" x1="2.19639" y1="6.03879" x2="24.5871" y2="23.5631" gradientUnits="userSpaceOnUse">
<stop stop-color="#1BC8FF"/>
<stop offset="1" stop-color="#C41BFF"/>
</linearGradient>
</defs>
</svg>
