<svg width="28" height="28" viewBox="0 0 28 28" fill="none" xmlns="http://www.w3.org/2000/svg">
<g clip-path="url(#clip0_142_169)">
<path d="M3.50001 10.5001C3.49995 8.76621 3.92928 7.0593 4.74965 5.53178C5.57001 4.00425 6.75589 2.70366 8.20139 1.74613C9.64689 0.788594 11.307 0.203927 13.0335 0.0443325C14.7601 -0.115262 16.4992 0.155183 18.0958 0.831518C19.6923 1.50785 21.0965 2.56903 22.1829 3.92029C23.2694 5.27155 24.0044 6.87084 24.3221 8.57534C24.6399 10.2799 24.5307 12.0365 24.0041 13.6885C23.4775 15.3405 22.5501 16.8364 21.3045 18.0426C20.9493 18.3856 20.6763 18.7426 20.5118 19.1258L19.1783 22.2216C19.1106 22.3785 18.9985 22.5121 18.8557 22.6061C18.713 22.7 18.5459 22.75 18.375 22.7501C18.6071 22.7501 18.8296 22.8423 18.9937 23.0064C19.1578 23.1705 19.25 23.393 19.25 23.6251C19.25 23.8572 19.1578 24.0797 18.9937 24.2438C18.8296 24.4079 18.6071 24.5001 18.375 24.5001C18.6071 24.5001 18.8296 24.5923 18.9937 24.7564C19.1578 24.9205 19.25 25.143 19.25 25.3751C19.25 25.6072 19.1578 25.8297 18.9937 25.9938C18.8296 26.1579 18.6071 26.2501 18.375 26.2501L17.983 27.0323C17.8378 27.323 17.6145 27.5674 17.3382 27.7384C17.0619 27.9093 16.7434 27.9999 16.4185 28.0001H11.5815C11.2566 27.9999 10.9382 27.9093 10.6618 27.7384C10.3855 27.5674 10.1622 27.323 10.017 27.0323L9.62501 26.2501C9.39294 26.2501 9.17038 26.1579 9.00629 25.9938C8.84219 25.8297 8.75001 25.6072 8.75001 25.3751C8.75001 25.143 8.84219 24.9205 9.00629 24.7564C9.17038 24.5923 9.39294 24.5001 9.62501 24.5001C9.39294 24.5001 9.17038 24.4079 9.00629 24.2438C8.84219 24.0797 8.75001 23.8572 8.75001 23.6251C8.75001 23.393 8.84219 23.1705 9.00629 23.0064C9.17038 22.8423 9.39294 22.7501 9.62501 22.7501C9.45384 22.7504 9.28635 22.7005 9.14326 22.6065C9.00018 22.5126 8.88779 22.3788 8.82001 22.2216L7.48826 19.1241C7.29757 18.715 7.0282 18.3475 6.69551 18.0426C5.68335 17.0646 4.87871 15.8927 4.32967 14.5968C3.78063 13.3008 3.49846 11.9075 3.50001 10.5001ZM14 1.75009C12.2573 1.74979 10.5542 2.26989 9.10896 3.24373C7.66373 4.21757 6.54222 5.60079 5.88816 7.21611C5.2341 8.83143 5.07728 10.6053 5.43781 12.3103C5.79834 14.0153 6.65979 15.5738 7.91176 16.7861C8.37201 17.2306 8.81126 17.7731 9.09476 18.4328L10.2025 21.0001H17.801L18.907 18.4328C19.1905 17.7731 19.6298 17.2306 20.09 16.7861C21.3421 15.5737 22.2036 14.015 22.564 12.3098C22.9245 10.6047 22.7676 8.83069 22.1133 7.2153C21.459 5.59991 20.3372 4.21671 18.8917 3.243C17.4462 2.26929 15.7429 1.74944 14 1.75009Z" fill="url(#paint0_linear_142_169)"/>
</g>
<defs>
<linearGradient id="paint0_linear_142_169" x1="5.14729" y1="4.23457" x2="26.5745" y2="15.2399" gradientUnits="userSpaceOnUse">
<stop stop-color="#1BC8FF"/>
<stop offset="1" stop-color="#C41BFF"/>
</linearGradient>
<clipPath id="clip0_142_169">
<rect width="28" height="28" fill="white"/>
</clipPath>
</defs>
</svg>
