<svg width="28" height="28" viewBox="0 0 28 28" fill="none" xmlns="http://www.w3.org/2000/svg">
<path d="M8.75826 2.7825C7.09154 3.24185 5.43614 3.74132 3.79351 4.2805C3.64351 4.32909 3.51018 4.41882 3.4087 4.53949C3.30722 4.66016 3.24166 4.8069 3.21951 4.963C2.25001 12.2378 4.49001 17.5455 7.16226 21.042C8.29366 22.5372 9.64272 23.8544 11.1645 24.9497C11.77 25.3767 12.3055 25.6847 12.7273 25.8825C12.9373 25.9823 13.1088 26.0487 13.24 26.089C13.2974 26.1091 13.3566 26.1238 13.4168 26.1327C13.4762 26.1231 13.5348 26.1085 13.5918 26.089C13.7248 26.0487 13.8963 25.9823 14.1063 25.8825C14.5263 25.6847 15.0635 25.375 15.669 24.9497C17.1908 23.8544 18.5398 22.5372 19.6713 21.042C22.3435 17.5473 24.5835 12.2378 23.614 4.963C23.592 4.80683 23.5266 4.65999 23.4251 4.53929C23.3235 4.41859 23.1901 4.32891 23.04 4.2805C21.9008 3.90775 19.9775 3.3005 18.0753 2.78425C16.1328 2.2575 14.346 1.86725 13.4168 1.86725C12.4893 1.86725 10.7008 2.2575 8.75826 2.78425V2.7825ZM8.29276 0.98C10.1915 0.46375 12.2093 0 13.4168 0C14.6243 0 16.642 0.46375 18.5408 0.98C20.4833 1.505 22.4415 2.12625 23.593 2.5025C24.0744 2.66149 24.5013 2.95306 24.8245 3.34373C25.1476 3.73439 25.3541 4.20829 25.42 4.711C26.463 12.5458 24.0428 18.3523 21.1063 22.1935C19.861 23.8367 18.3762 25.2837 16.7015 26.4862C16.1224 26.9024 15.5089 27.2683 14.8675 27.58C14.3775 27.811 13.8508 28 13.4168 28C12.9828 28 12.4578 27.811 11.966 27.58C11.3247 27.2683 10.7111 26.9024 10.132 26.4862C8.45731 25.2837 6.97253 23.8367 5.72726 22.1935C2.79076 18.3523 0.370508 12.5458 1.41351 4.711C1.47946 4.20829 1.68588 3.73439 2.00906 3.34373C2.33224 2.95306 2.75907 2.66149 3.24051 2.5025C4.91209 1.95442 6.59667 1.44677 8.29276 0.98Z" fill="url(#paint0_linear_142_194)"/>
<path d="M18.7039 9.59032C18.7853 9.6716 18.85 9.76815 18.8941 9.87446C18.9382 9.98076 18.9609 10.0947 18.9609 10.2098C18.9609 10.3249 18.9382 10.4389 18.8941 10.5452C18.85 10.6515 18.7853 10.748 18.7039 10.8293L13.4539 16.0793C13.3726 16.1608 13.276 16.2254 13.1697 16.2696C13.0634 16.3137 12.9494 16.3364 12.8344 16.3364C12.7193 16.3364 12.6053 16.3137 12.499 16.2696C12.3927 16.2254 12.2961 16.1608 12.2149 16.0793L9.58986 13.4543C9.5085 13.373 9.44397 13.2764 9.39994 13.1701C9.35591 13.0638 9.33325 12.9499 9.33325 12.8348C9.33325 12.7198 9.35591 12.6058 9.39994 12.4995C9.44397 12.3932 9.5085 12.2967 9.58986 12.2153C9.67121 12.134 9.76779 12.0694 9.87409 12.0254C9.98038 11.9814 10.0943 11.9587 10.2094 11.9587C10.3244 11.9587 10.4383 11.9814 10.5446 12.0254C10.6509 12.0694 10.7475 12.134 10.8289 12.2153L12.8344 14.2226L17.4649 9.59032C17.5461 9.50883 17.6427 9.44418 17.749 9.40007C17.8553 9.35596 17.9693 9.33325 18.0844 9.33325C18.1994 9.33325 18.3134 9.35596 18.4197 9.40007C18.526 9.44418 18.6226 9.50883 18.7039 9.59032Z" fill="url(#paint1_linear_142_194)"/>
<defs>
<linearGradient id="paint0_linear_142_194" x1="3.08859" y1="4.23476" x2="26.3347" y2="18.1644" gradientUnits="userSpaceOnUse">
<stop stop-color="#1BC8FF"/>
<stop offset="1" stop-color="#C41BFF"/>
</linearGradient>
<linearGradient id="paint1_linear_142_194" x1="10.0885" y1="10.3924" x2="16.6698" y2="16.5886" gradientUnits="userSpaceOnUse">
<stop stop-color="#1BC8FF"/>
<stop offset="1" stop-color="#C41BFF"/>
</linearGradient>
</defs>
</svg>
