<svg width="28" height="28" viewBox="0 0 28 28" fill="none" xmlns="http://www.w3.org/2000/svg">
<path d="M0 0.875C0 0.642936 0.0921872 0.420376 0.256282 0.256282C0.420376 0.0921872 0.642936 0 0.875 0L6.125 0C6.35706 0 6.57962 0.0921872 6.74372 0.256282C6.90781 0.420376 7 0.642936 7 0.875C7 1.10706 6.90781 1.32962 6.74372 1.49372C6.57962 1.65781 6.35706 1.75 6.125 1.75H1.75V6.125C1.75 6.35706 1.65781 6.57962 1.49372 6.74372C1.32962 6.90781 1.10706 7 0.875 7C0.642936 7 0.420376 6.90781 0.256282 6.74372C0.0921872 6.57962 0 6.35706 0 6.125V0.875ZM21 0.875C21 0.642936 21.0922 0.420376 21.2563 0.256282C21.4204 0.0921872 21.6429 0 21.875 0L27.125 0C27.3571 0 27.5796 0.0921872 27.7437 0.256282C27.9078 0.420376 28 0.642936 28 0.875V6.125C28 6.35706 27.9078 6.57962 27.7437 6.74372C27.5796 6.90781 27.3571 7 27.125 7C26.8929 7 26.6704 6.90781 26.5063 6.74372C26.3422 6.57962 26.25 6.35706 26.25 6.125V1.75H21.875C21.6429 1.75 21.4204 1.65781 21.2563 1.49372C21.0922 1.32962 21 1.10706 21 0.875ZM0.875 21C1.10706 21 1.32962 21.0922 1.49372 21.2563C1.65781 21.4204 1.75 21.6429 1.75 21.875V26.25H6.125C6.35706 26.25 6.57962 26.3422 6.74372 26.5063C6.90781 26.6704 7 26.8929 7 27.125C7 27.3571 6.90781 27.5796 6.74372 27.7437C6.57962 27.9078 6.35706 28 6.125 28H0.875C0.642936 28 0.420376 27.9078 0.256282 27.7437C0.0921872 27.5796 0 27.3571 0 27.125V21.875C0 21.6429 0.0921872 21.4204 0.256282 21.2563C0.420376 21.0922 0.642936 21 0.875 21ZM27.125 21C27.3571 21 27.5796 21.0922 27.7437 21.2563C27.9078 21.4204 28 21.6429 28 21.875V27.125C28 27.3571 27.9078 27.5796 27.7437 27.7437C27.5796 27.9078 27.3571 28 27.125 28H21.875C21.6429 28 21.4204 27.9078 21.2563 27.7437C21.0922 27.5796 21 27.3571 21 27.125C21 26.8929 21.0922 26.6704 21.2563 26.5063C21.4204 26.3422 21.6429 26.25 21.875 26.25H26.25V21.875C26.25 21.6429 26.3422 21.4204 26.5063 21.2563C26.6704 21.0922 26.8929 21 27.125 21ZM7 7H8.75V8.75H7V7Z" fill="url(#paint0_linear_142_189)"/>
<path d="M12.25 3.5H3.5V12.25H12.25V3.5ZM5.25 5.25H10.5V10.5H5.25V5.25ZM8.75 19.25H7V21H8.75V19.25Z" fill="url(#paint1_linear_142_189)"/>
<path d="M12.25 15.75H3.5V24.5H12.25V15.75ZM5.25 17.5H10.5V22.75H5.25V17.5ZM19.25 7H21V8.75H19.25V7Z" fill="url(#paint2_linear_142_189)"/>
<path d="M15.75 3.5H24.5V12.25H15.75V3.5ZM17.5 5.25V10.5H22.75V5.25H17.5ZM14 14V17.5H15.75V19.25H14V21H17.5V17.5H19.25V21H21V19.25H24.5V17.5H19.25V14H14ZM17.5 17.5H15.75V15.75H17.5V17.5ZM24.5 21H22.75V22.75H19.25V24.5H24.5V21ZM17.5 24.5V22.75H14V24.5H17.5Z" fill="url(#paint3_linear_142_189)"/>
<path d="M21 15.75H24.5V14H21V15.75Z" fill="url(#paint4_linear_142_189)"/>
<defs>
<linearGradient id="paint0_linear_142_189" x1="2.19639" y1="4.23476" x2="26.7754" y2="21.0672" gradientUnits="userSpaceOnUse">
<stop stop-color="#1BC8FF"/>
<stop offset="1" stop-color="#C41BFF"/>
</linearGradient>
<linearGradient id="paint1_linear_142_189" x1="4.18637" y1="6.14673" x2="14.2855" y2="9.60481" gradientUnits="userSpaceOnUse">
<stop stop-color="#1BC8FF"/>
<stop offset="1" stop-color="#C41BFF"/>
</linearGradient>
<linearGradient id="paint2_linear_142_189" x1="4.87274" y1="9.64673" x2="20.2346" y2="20.167" gradientUnits="userSpaceOnUse">
<stop stop-color="#1BC8FF"/>
<stop offset="1" stop-color="#C41BFF"/>
</linearGradient>
<linearGradient id="paint3_linear_142_189" x1="14.8236" y1="6.67607" x2="26.9426" y2="10.8258" gradientUnits="userSpaceOnUse">
<stop stop-color="#1BC8FF"/>
<stop offset="1" stop-color="#C41BFF"/>
</linearGradient>
<linearGradient id="paint4_linear_142_189" x1="21.2745" y1="14.2647" x2="22.8439" y2="16.4141" gradientUnits="userSpaceOnUse">
<stop stop-color="#1BC8FF"/>
<stop offset="1" stop-color="#C41BFF"/>
</linearGradient>
</defs>
</svg>
